<?xml version="1.0" standalone="no"?><!DOCTYPE svg PUBLIC "-//W3C//DTD SVG 1.1//EN" "http://www.w3.org/Graphics/SVG/1.1/DTD/svg11.dtd"><svg t="1719817635502" class="icon" viewBox="0 0 1300 1024" version="1.1" xmlns="http://www.w3.org/2000/svg" p-id="3445" xmlns:xlink="http://www.w3.org/1999/xlink" width="253.90625" height="200"><path d="M0 0h1300.134831v1024H0z" fill="#4A5863" p-id="3446"></path><path d="M123.978787 1019.553079l379.886741-379.892495 125.91173 125.911731 275.467506-274.685124 320.017258 528.665888z" fill="#708696" p-id="3447"></path><path d="M486.854472 436.373573c-131.198562 0-237.556494-106.35218-237.556494-237.550742 0-24.869393 3.831371-48.841348 10.913078-71.369348-60.283685 35.414292-100.754697 100.921528-100.754696 175.886382 0 112.59973 91.274067 203.868045 203.862292 203.868045 62.820674 0 119.00836-28.430382 156.401618-73.106697a239.909393 239.909393 0 0 1-32.865798 2.27236zM744.649348 196.941663h56.550113v56.550112h-56.550113z" fill="#F7DF97" p-id="3448"></path><path d="M1055.674966 460.834517h47.121259v47.115505h-47.121259zM119.934562 607.588674h35.460314v35.460315h-35.460314z" fill="#F7DF97" opacity=".43" p-id="3449"></path></svg>