<?xml version="1.0" standalone="no"?><!DOCTYPE svg PUBLIC "-//W3C//DTD SVG 1.1//EN" "http://www.w3.org/Graphics/SVG/1.1/DTD/svg11.dtd"><svg t="1719834155658" class="icon" viewBox="0 0 1117 1024" version="1.1" xmlns="http://www.w3.org/2000/svg" p-id="3142" xmlns:xlink="http://www.w3.org/1999/xlink" width="218.1640625" height="200"><path d="M1117.98657 895.381667h-435.316482L563.939947 1023.994869l-128.618333-128.613202H0V0h435.316483L563.939947 128.618333 682.670088 0h435.316482z" fill="#6B7F8F" p-id="3143"></path><path d="M107.169115 166.344324h242.396681v102.627834H107.169115zM107.169115 636.29257h242.396681v102.627833H107.169115zM107.169115 401.952174h242.396681v102.627834H107.169115z" fill="#FFFFFF" opacity=".65" p-id="3144"></path><path d="M778.498827 166.344324h242.396681v102.627834h-242.396681zM778.498827 636.29257h242.396681v102.627833h-242.396681zM778.498827 401.952174h242.396681v102.627834h-242.396681z" fill="#FFFFFF" opacity=".65" p-id="3145"></path><path d="M682.670088 0v895.381667L563.939947 1023.994869V128.618333z" fill="#5D6F7D" p-id="3146"></path><path d="M435.316483 0l0.005131 895.381667 128.618333 128.613202V128.618333z" fill="#4C5A66" opacity=".6" p-id="3147"></path></svg>