<?xml version="1.0" standalone="no"?><!DOCTYPE svg PUBLIC "-//W3C//DTD SVG 1.1//EN" "http://www.w3.org/Graphics/SVG/1.1/DTD/svg11.dtd"><svg t="1719799915001" class="icon" viewBox="0 0 1027 1024" version="1.1" xmlns="http://www.w3.org/2000/svg" p-id="3142" xmlns:xlink="http://www.w3.org/1999/xlink" width="200.5859375" height="200"><path d="M769.80326 298.596309l-150.463892 216.578187 69.559445-0.090543z" opacity=".14" p-id="3143"></path><path d="M513.576417 10.018552a16.587426 16.587426 0 0 0-10.584444 15.482805l0.638326 490.909047a16.582899 16.582899 0 0 0 16.582899 16.560263h30.467625c4.395849 0 8.606086-1.752002 11.72981-4.853089l217.795986-217.800514a16.573845 16.573845 0 0 0 0.529675-22.902781l-248.901938-273.099479a16.591953 16.591953 0 0 0-18.257939-4.296252z" fill="#F78383" p-id="3144"></path><path d="M757.557357 286.133104l-248.272665 217.795986a16.573845 16.573845 0 1 0 10.928506 29.055159h168.748995a16.591953 16.591953 0 0 0 15.582402-10.89229l79.519144-217.800513a16.582899 16.582899 0 0 0-26.506382-18.158342z" fill="#F78383" p-id="3145"></path><path d="M291.266876 255.878254L18.153815 504.793773a16.573845 16.573845 0 1 0 11.186553 28.842383l490.909047-0.638326a16.569318 16.569318 0 0 0 16.551209-16.578372v-30.476679c0-4.395849-1.747474-8.61514-4.857617-11.725283L314.156076 256.412456a16.573845 16.573845 0 0 0-22.8892-0.534202z" fill="#5FD4FF" p-id="3146"></path><path d="M1010.909469 499.315938l-490.913573 0.647381a16.569318 16.569318 0 0 0-16.560264 16.573845v30.476679c0 4.395849 1.747474 8.610613 4.857617 11.734337l217.800513 217.786931a16.582899 16.582899 0 0 0 22.902781 0.529675l273.099479-248.901937a16.578372 16.578372 0 0 0-11.186553-28.846911z" fill="#FFBF00" p-id="3147"></path><path d="M288.754316 258.766567a16.569318 16.569318 0 0 0 1.217799 20.304205l217.795986 248.268138a16.560263 16.560263 0 0 0 18.298684 4.581462 16.587426 16.587426 0 0 0 10.738366-15.519022V347.652355c0-6.971789-4.346051-13.192074-10.887762-15.573348L308.121403 252.56439a16.560263 16.560263 0 0 0-19.367087 6.202177z" fill="#5FD4FF" p-id="3148"></path><path d="M514.178526 501.022669a16.578372 16.578372 0 0 0-10.738367 15.519022v168.748994c0 6.967262 4.355105 13.192074 10.892289 15.577875l217.800513 79.514617a16.578372 16.578372 0 0 0 18.153816-26.506381l-217.795986-248.277193a16.614589 16.614589 0 0 0-18.312265-4.576934z" fill="#FFBF00" p-id="3149"></path><path d="M489.777263 499.918047c-4.404903 0-8.610613 1.742947-11.725283 4.857617l-217.800513 217.795986a16.596481 16.596481 0 0 0-0.529675 22.902781l248.915519 273.104007a16.587426 16.587426 0 0 0 18.25794 4.296252 16.614589 16.614589 0 0 0 10.579917-15.49186l-0.638327-490.904519a16.582899 16.582899 0 0 0-16.582899-16.564791h-30.476679z" fill="#00CCC6" p-id="3150"></path><path d="M351.486839 499.918047a16.560263 16.560263 0 0 0-15.56882 10.887762l-79.514617 217.805041a16.573845 16.573845 0 0 0 6.215758 19.36256 16.578372 16.578372 0 0 0 20.299677-1.213272l248.272666-217.795986a16.555736 16.555736 0 0 0 4.576934-18.312265 16.569318 16.569318 0 0 0-15.509968-10.738367H351.486839z" fill="#00CCC6" p-id="3151"></path></svg>