<?xml version="1.0" standalone="no"?><!DOCTYPE svg PUBLIC "-//W3C//DTD SVG 1.1//EN" "http://www.w3.org/Graphics/SVG/1.1/DTD/svg11.dtd"><svg t="1719800028290" class="icon" viewBox="0 0 1024 1024" version="1.1" xmlns="http://www.w3.org/2000/svg" p-id="3454" xmlns:xlink="http://www.w3.org/1999/xlink" width="200" height="200"><path d="M231.649091 1024c-62.256782 0-120.535119-23.988377-164.095563-67.54882C23.602303 912.504662-0.386074 853.694297 0.004708 790.877237c0.390782-62.60519 24.972394-121.443805 69.21553-165.677524l89.88932-89.88932c44.629209-44.633918 103.995145-69.220238 167.160613-69.220238 62.256782 0 120.53041 23.988377 164.095562 67.54882 90.859213 90.873338 90.115315 239.474151-1.66671 331.256175l-89.88932 89.894028c-44.629209 44.629209-103.995145 69.210822-167.160612 69.210822z m94.625788-463.75017c-38.009453 0-73.730712 14.793225-100.576977 41.63949l-89.894029 89.894028c-26.610855 26.606146-41.394663 62.011954-41.634782 99.682416-0.235411 37.449175 13.95987 72.398286 39.968073 98.401781 25.7775 25.7775 60.406452 39.968072 97.511927 39.968072 38.014161 0 73.730712-14.783808 100.576977-41.634782l89.88932-89.894028c55.067331-55.067331 55.815938-143.93026 1.66671-198.088905-25.7775-25.768083-60.401744-39.968072-97.507219-39.968072zM697.729829 557.914553c-62.256782 0-120.535119-23.988377-164.095562-67.54882-43.951226-43.951226-67.939602-102.761591-67.544112-165.583359 0.390782-62.600482 24.972394-121.439097 69.210822-165.672816l89.88932-89.88932C669.828922 24.58632 729.199566 0 792.360326 0c62.26149 0 120.535119 23.988377 164.095562 67.553528 43.951226 43.951226 67.944311 102.756883 67.54882 165.578652-0.390782 62.600482-24.972394 121.439097-69.206113 165.672815l-89.898737 89.88932c-44.638626 44.638626-104.004561 69.220238-167.170029 69.220238zM792.360326 94.164383c-38.009453 0-73.730712 14.788516-100.581686 41.63949l-89.88932 89.88932c-26.610855 26.610855-41.399371 62.011954-41.634782 99.682416-0.235411 37.449175 13.95987 72.398286 39.968072 98.406489 25.7775 25.7775 60.401744 39.972781 97.507219 39.97278 38.009453 0 73.730712-14.788516 100.576978-41.634782l89.903444-89.894028c26.606146-26.606146 41.389955-62.007246 41.630074-99.677708 0.235411-37.449175-13.964578-72.393578-39.97278-98.406488-25.7775-25.7775-60.401744-39.977489-97.507219-39.977489z" fill="#C2CCCC" p-id="3455"></path><path d="M332.230776 750.63138a58.687952 58.687952 0 0 1-41.615949-17.236791c-22.980818-22.985526-22.980818-60.246372 0-83.231898l344.571019-344.575727c22.980818-22.985526 60.25108-22.985526 83.231898 0 22.985526 22.980818 22.985526 60.246372 0 83.231898l-344.571019 344.575727a58.687952 58.687952 0 0 1-41.615949 17.236791z" fill="#F0F0F0" p-id="3456"></path></svg>