<?xml version="1.0" standalone="no"?><!DOCTYPE svg PUBLIC "-//W3C//DTD SVG 1.1//EN" "http://www.w3.org/Graphics/SVG/1.1/DTD/svg11.dtd"><svg t="1719800055345" class="icon" viewBox="0 0 1106 1024" version="1.1" xmlns="http://www.w3.org/2000/svg" p-id="6075" xmlns:xlink="http://www.w3.org/1999/xlink" width="216.015625" height="200"><path d="M952.856967 829.869285c-74.735745-21.325894-139.239065 5.721948-224.49258-5.937209-11.328755-1.551884-22.657511-4.310234-33.966243-7.74941-19.068153-11.23364-39.863403-34.391759-47.517696-82.550233-3.294-20.720159-1.67203-32.469425 22.642493-49.399982 44.243721-18.722733 84.978181-49.650286 108.431658-98.850024 5.526711-11.584065 14.69284-24.174353 18.132017-37.855965 5.541729-22.111848-2.80841-32.239145 1.747121-45.169846 5.166273-14.687834 10.092254-26.301936 22.181933-38.381603 26.572264-26.567258 37.445467-19.628834 30.542085-63.487087-18.312235-116.206098-50.716581-157.01565-60.959017-200.618593-8.260029-35.162695 7.474075-27.893869-8.65551-93.969098C760.122948 20.586646 658.859994-10.601222 537.702884 3.115433 325.715487 27.114573 229.478635 194.903303 229.478635 359.002554c0 83.491376 19.65887 130.608586 44.779372 185.720504 24.469711 53.680179 55.572477 87.381099 95.480933 113.387676l4.420368 4.445398c-7.529142-5.156261 160.089382 134.042756-48.288633 172.344262-105.002495 11.148537-144.910952-7.098619-226.149593 16.069511C8.760637 884.160205-1.04627 943.597374 0.080097 1023.994994h1106.638691c4.245155-115.595357-44.839444-163.012932-153.861821-194.125709z" fill="#546470" p-id="6076"></path></svg>